<?xml version="1.0" encoding="UTF-8" standalone="no"?>
<!-- Created with Inkscape (http://www.inkscape.org/) -->

<svg
   xmlns:dc="http://purl.org/dc/elements/1.1/"
   xmlns:cc="http://creativecommons.org/ns#"
   xmlns:rdf="http://www.w3.org/1999/02/22-rdf-syntax-ns#"
   xmlns:svg="http://www.w3.org/2000/svg"
   xmlns="http://www.w3.org/2000/svg"
   xmlns:sodipodi="http://sodipodi.sourceforge.net/DTD/sodipodi-0.dtd"
   xmlns:inkscape="http://www.inkscape.org/namespaces/inkscape"
   version="1.1"
   id="svg6221"
   xml:space="preserve"
   width="800"
   height="800"
   viewBox="0 0 800 800"
   sodipodi:docname="lines-wavy-3-publicdomainvectors.org.svg"
   inkscape:version="0.92.4 (5da689c313, 2019-01-14)"><metadata
     id="metadata6227"><rdf:RDF><cc:Work
         rdf:about=""><dc:format>image/svg+xml</dc:format><dc:type
           rdf:resource="http://purl.org/dc/dcmitype/StillImage" /><dc:title></dc:title></cc:Work></rdf:RDF></metadata><defs
     id="defs6225"><clipPath
       clipPathUnits="userSpaceOnUse"
       id="clipPath6237"><path
         d="M 0,600 H 600 V 0 H 0 Z"
         id="path6235"
         inkscape:connector-curvature="0" /></clipPath><linearGradient
       x1="0"
       y1="0"
       x2="1"
       y2="0"
       gradientUnits="userSpaceOnUse"
       gradientTransform="matrix(600,0,0,-600,0,300)"
       spreadMethod="pad"
       id="linearGradient6263"><stop
         style="stop-opacity:1;stop-color:#1aaeec"
         offset="0"
         id="stop6251" /><stop
         style="stop-opacity:1;stop-color:#4253a7"
         offset="0.2"
         id="stop6253" /><stop
         style="stop-opacity:1;stop-color:#e70c8d"
         offset="0.4"
         id="stop6255" /><stop
         style="stop-opacity:1;stop-color:#e33c47"
         offset="0.6"
         id="stop6257" /><stop
         style="stop-opacity:1;stop-color:#f6e12c"
         offset="0.8"
         id="stop6259" /><stop
         style="stop-opacity:1;stop-color:#14ab69"
         offset="1"
         id="stop6261" /></linearGradient></defs><sodipodi:namedview
     pagecolor="#ffffff"
     bordercolor="#666666"
     borderopacity="1"
     objecttolerance="10"
     gridtolerance="10"
     guidetolerance="10"
     inkscape:pageopacity="0"
     inkscape:pageshadow="2"
     inkscape:window-width="1920"
     inkscape:window-height="1018"
     id="namedview6223"
     showgrid="false"
     inkscape:zoom="0.90744565"
     inkscape:cx="455.9322"
     inkscape:cy="420.33898"
     inkscape:window-x="-8"
     inkscape:window-y="-8"
     inkscape:window-maximized="1"
     inkscape:current-layer="g6229" /><g
     id="g6229"
     inkscape:groupmode="layer"
     inkscape:label="lines-wavy-3-publicdomainvectors.org"
     transform="matrix(1.3333333,0,0,-1.3333333,0,800)"><g
       id="g6231"><g
         id="g6233"
         clip-path="url(#clipPath6237)"><g
           id="g6239"><g
             id="g6241"><g
               id="g6247"><g
                 id="g6249"><path
                   d="m 137.762,0 c 1.76,4.637 4.581,9.26 8.084,13.9 -0.178,-1.054 -0.35,-2.121 -0.522,-3.17 C 142.692,7.141 140.48,3.566 138.86,0 h -0.987 c -2.042,4.604 -3.427,9.054 -4.111,13.241 -1.843,11.357 1.254,21.162 6.606,29.08 5.924,8.744 14.424,16.13 24.169,24.64 23.055,20.114 51.188,51.235 88.543,103.187 -0.816,-0.727 -1.622,-1.453 -2.419,-2.167 C 213.994,115.589 186.276,84.102 163.675,63.796 154.125,55.23 145.824,47.83 140.114,39.128 c -5.161,-7.883 -8.032,-17.639 -5.955,-28.802 0.615,-3.304 1.676,-6.763 3.16,-10.326 -1.484,3.563 -2.545,7.022 -3.16,10.326 -2.077,11.163 0.794,20.919 5.955,28.802 5.71,8.702 14.011,16.102 23.561,24.668 22.601,20.306 50.319,51.793 86.986,104.185 0.797,0.714 1.603,1.44 2.419,2.167 C 215.725,118.196 187.592,87.075 164.537,66.961 154.792,58.451 146.292,51.065 140.368,42.321 135.016,34.403 131.919,24.598 133.762,13.241 134.446,9.054 135.831,4.604 137.873,0 Z M 92.159,600 C 84.583,585.284 78.041,570.015 72.601,554.28 50.83,490.983 46.384,420.499 52.979,350.391 58.625,290.621 71.763,226.377 92.454,160.273 98.614,140.61 105.595,120.575 113.723,100.535 122.22,79.608 132.25,58.052 144.566,36.409 151.179,24.799 158.579,12.947 166.887,0.928 167.101,0.618 167.315,0.31 167.53,0 h -0.078 c -0.351,0.507 -0.7,1.013 -1.047,1.519 -8.354,12.162 -15.782,24.155 -22.424,35.909 -12.373,21.901 -22.44,43.724 -30.981,64.907 -8.183,20.296 -15.209,40.603 -21.423,60.534 -20.83,66.815 -34.205,131.804 -39.984,192.47 -6.784,71.445 -2.284,143.524 19.975,208.5 4.258,12.341 9.174,24.409 14.718,36.161 z M 600,431.949 c -49.46,24.799 -102.708,43.525 -158.351,54.662 -87.837,17.487 -171.628,13.857 -239.436,-15.462 -36.321,-16.223 -64.448,-40.3 -84.08,-69.238 C 100.343,375.701 89.541,345.265 84.85,314.04 76.792,260.217 84.055,197.181 102,135.382 106.531,119.78 112.065,103.409 118.903,86.81 126.056,69.434 134.868,51.318 145.885,33.163 152.429,22.373 159.954,11.295 168.561,0 h 0.021 c -8.916,11.735 -16.682,23.237 -23.407,34.435 -11.049,18.393 -19.881,36.756 -27.059,54.362 -6.861,16.834 -12.427,33.442 -16.974,49.266 -17.972,62.466 -25.346,126.245 -17.122,180.892 4.806,31.828 15.889,62.913 34.141,89.712 20.168,29.572 49.041,54.204 86.36,70.741 69.206,29.711 154.588,33.349 243.997,15.396 53.01,-10.71 103.907,-28.189 151.482,-51.211 z M 167.814,0 c -13.991,17.929 -25.807,36.625 -35.043,54.793 -9.726,19.157 -17.163,38.548 -22.625,56.04 -9.706,31.108 -15.479,62.825 -17.414,92.01 -3.523,54.291 7.902,106.573 39.159,141.508 41.878,45.747 111.478,62.537 191.117,56.711 43.803,-3.217 87.858,-13.3 130.782,-28.484 42.928,-15.218 82.68,-34.86 119.25,-57.223 -2.78,-1.248 -5.54,-2.487 -8.279,-3.698 -36.045,21.598 -75.129,40.591 -117.283,55.312 -42.159,14.725 -85.395,24.484 -128.369,27.592 -78.17,5.608 -146.472,-10.868 -187.515,-56.019 C 101.135,304.2 89.949,252.796 93.531,199.23 c 1.934,-28.789 7.732,-60.188 17.46,-90.969 5.469,-17.282 12.92,-36.438 22.658,-55.362 C 142.682,35.362 154.169,17.333 167.727,0 Z M 600,600 v -1.542 c -1.68,0.52 -3.362,1.033 -5.047,1.542 z m -361.083,0 C 184.985,577.348 143.182,541.654 115.302,499.664 90.259,461.896 76.358,418.86 70.979,375.697 62.087,303.824 74.196,222.938 97.947,145.525 103.389,127.793 109.725,109.683 117.25,91.563 125.131,72.592 134.567,53.075 146.187,33.53 152.676,22.618 160.038,11.434 168.386,0 h -0.034 c -8.604,11.824 -16.166,23.387 -22.813,34.657 -11.664,19.799 -21.132,39.562 -29.044,58.766 -7.563,18.369 -13.921,36.722 -19.415,54.703 -23.847,78.262 -36.213,160.14 -27.176,233.243 5.494,44.061 19.709,88.085 45.381,126.814 24.423,36.734 59.223,68.819 103.283,91.817 z M 166.116,0 c -3.969,4.963 -7.68,9.897 -11.137,14.792 C 142.5,32.483 132.9,50.361 125.75,67.124 c -12.277,28.783 -19.39,58.489 -22.34,85.309 -5.205,47.776 3.55,93.811 28.699,123.112 29.294,33.585 75.559,45.944 127.151,46.141 57.711,0.16 113.717,-14.541 167.019,-32.487 16.215,-5.494 32.226,-11.39 48.018,-17.506 -2,-0.875 -3.984,-1.74 -5.951,-2.604 -16.145,5.979 -32.505,11.733 -49.057,17.102 -52.336,16.84 -107.089,30.765 -163.377,30.292 -50.34,-0.478 -95.464,-12.731 -124.015,-45.819 -24.506,-28.933 -33.065,-74.268 -27.762,-121.46 2.987,-26.488 10.176,-55.941 22.509,-84.361 7.193,-16.567 16.826,-34.236 29.323,-51.716 3.101,-4.334 6.427,-8.711 9.975,-13.127 z m -7.159,0 c -1.494,1.889 -2.94,3.777 -4.34,5.666 -7.691,10.386 -14.121,20.991 -19.249,31.468 -9.438,19.269 -14.969,39.251 -16.925,57.062 -3.043,27.786 2.859,53.019 15.704,70.259 15.015,20.081 39.508,31.763 69.99,37.305 22.187,3.945 45.699,5.35 70.343,7.266 24.776,1.916 49.961,4.406 76.447,8.943 -1.095,-0.482 -2.185,-0.951 -3.267,-1.419 -26.34,-5.138 -51.336,-8.154 -75.867,-10.478 -24.381,-2.31 -47.608,-3.987 -69.494,-8.133 -29.752,-5.767 -53.664,-17.412 -68.264,-37.271 -12.525,-17.083 -18.21,-42.053 -14.995,-69.503 2.072,-17.61 7.705,-37.338 17.235,-56.344 5.198,-10.366 11.687,-20.837 19.435,-31.098 0.936,-1.241 1.893,-2.482 2.871,-3.723 z m -5.717,0 c -5.063,6.743 -9.34,13.33 -12.775,19.562 -7.199,13.03 -11.931,26.192 -14.393,38.307 -2.366,11.661 -2.746,22.846 -1.479,32.508 4.637,34.918 32.895,53.553 72.56,66.044 34.156,10.892 69.265,20.949 113.009,43.642 0.447,0.23 0.893,0.482 1.346,0.702 -0.834,-0.355 -1.657,-0.735 -2.479,-1.088 -0.857,-0.471 -1.713,-0.937 -2.564,-1.402 -43.002,-23.4 -77.481,-34.076 -110.918,-45.26 -20.285,-6.728 -37.257,-14.08 -49.86,-25.399 -11.08,-9.986 -18.727,-23.687 -20.788,-40.488 -1.153,-9.581 -0.673,-20.609 1.794,-32.114 2.57,-11.98 7.422,-24.966 14.734,-37.845 3.112,-5.49 6.896,-11.261 11.31,-17.169 z m -7.445,0 c -4.308,6.585 -7.744,13.094 -10.298,19.349 -3.904,9.57 -5.928,18.939 -6.299,27.175 -0.651,14.529 3.963,27.017 11.586,36.503 8.567,10.635 20.906,18.536 35.787,26.911 -0.375,-1.1 -0.75,-2.198 -1.135,-3.286 -14.56,-8.488 -26.611,-16.408 -34.913,-26.983 -7.397,-9.437 -11.786,-21.818 -10.934,-36.159 0.494,-8.144 2.639,-17.39 6.659,-26.832 2.31,-5.409 5.296,-11.007 8.951,-16.678 z m 17.474,0 c -6.846,8.456 -12.859,16.886 -18.065,25.247 -16.297,26.183 -25.53,52.243 -30.171,75.253 -4.472,22.235 -5.064,43.323 -2.569,61.49 5.393,38.966 26.986,67.748 56.317,80.827 30.677,13.579 67.752,15.348 108.063,12.787 41.777,-2.655 82.906,-9.799 125.506,-15.282 -0.739,-0.324 -1.48,-0.637 -2.211,-0.961 -42.391,5.015 -83.231,11.792 -124.664,14.249 -39.981,2.369 -76.737,0.535 -107.147,-13.017 -28.986,-13.029 -50.342,-41.631 -55.628,-80.323 -2.459,-18.06 -1.828,-39.032 2.679,-61.137 4.688,-22.904 13.979,-48.853 30.343,-74.9 5.045,-8.027 10.841,-16.116 17.413,-24.233 -6.572,8.117 -12.368,16.206 -17.413,24.233 -16.364,26.047 -25.655,51.996 -30.343,74.9 -4.507,22.105 -5.138,43.077 -2.679,61.137 5.286,38.692 26.642,67.294 55.628,80.323 30.41,13.552 67.166,15.386 107.147,13.017 41.433,-2.457 82.273,-9.234 124.664,-14.249 0.731,0.324 1.472,0.637 2.211,0.961 -42.6,5.483 -83.729,12.627 -125.506,15.282 -40.311,2.561 -77.386,0.792 -108.063,-12.787 -29.331,-13.079 -50.924,-41.861 -56.317,-80.827 -2.495,-18.167 -1.903,-39.255 2.569,-61.49 4.641,-23.01 13.874,-49.07 30.171,-75.253 C 150.41,16.886 156.423,8.456 163.269,0 m -12.557,0 c 6.032,45.529 10.182,90.838 13.138,135.292 0.683,11.313 1.315,22.819 1.899,34.53 1.525,36.068 1.496,75.395 -3.446,116.016 -5.395,44.178 -17.006,90.2 -38.294,131.623 C 91.382,480.911 42.245,522.411 0,542.649 v 0.373 c 42.888,-20.131 92.903,-62.088 125.72,-126.395 21.171,-41.515 32.581,-87.565 37.779,-131.715 4.755,-40.571 4.615,-79.81 2.948,-115.777 -0.533,-11.602 -1.23,-23.06 -2.018,-34.397 C 161.337,90.421 157.068,45.273 150.981,0 Z M 600,390.36 c -3.592,-7.68 -7.612,-14.663 -11.812,-20.922 -38.018,-54.985 -92.335,-86.613 -140.579,-109.409 -19.374,-8.436 -37.13,-16.167 -53.432,-23.257 -38.958,-16.072 -73.506,-30.67 -99.624,-44.894 -4.617,-2.522 -9.063,-5.039 -13.34,-7.556 -2.133,-1.263 -4.219,-2.509 -6.266,-3.769 -29.58,-18.181 -49.414,-36.895 -61.141,-43.206 -0.185,-0.468 -0.368,-0.946 -0.555,-1.413 11.656,6.467 31.36,25.397 60.776,43.821 2.035,1.281 4.106,2.544 6.219,3.816 4.249,2.553 8.664,5.114 13.254,7.666 29.1,16.195 68.893,32.647 113.507,52.042 26.846,11.685 55.803,25.002 84.635,43.019 32.934,20.604 66.139,47.706 90.952,85.252 6.703,10.504 12.894,23.001 17.406,37.354 z M 559.037,600 c 12.259,-15.287 22.401,-30.685 30.482,-45.893 4.012,-7.586 7.494,-15.099 10.481,-22.51 v -23.634 c -4.309,15.208 -10.665,31.018 -19.451,47.137 -8.114,14.898 -18.225,29.961 -30.378,44.9 z m -212.636,0 c 5.132,-4.159 10.12,-8.441 14.954,-12.837 43.836,-40.31 67.712,-86.303 75.015,-129.636 6.515,-38.978 -0.266,-75.189 -13.014,-105.554 -21.776,-51.72 -59.048,-87.618 -87.471,-113.426 -34.826,-31.41 -65.897,-57.151 -88.383,-80.862 -9.238,-9.753 -17.688,-19.578 -24.757,-28.465 -10.12,-12.714 -18.378,-24.866 -24.413,-32.21 -0.187,-0.515 -0.382,-1.018 -0.572,-1.528 5.994,7.508 14.199,19.818 24.258,32.686 7.023,8.988 15.412,18.935 24.578,28.799 22.292,23.952 53.088,49.993 87.439,81.806 27.976,26.071 64.499,62.342 85.349,114.189 12.188,30.413 18.35,66.566 11.343,105.333 -7.827,43.074 -32.011,88.631 -75.803,128.367 -5.099,4.577 -10.364,9.026 -15.786,13.338 z m -93.993,0 c 58.625,-36.564 101.649,-89.551 117.557,-147.375 9.259,-34.326 8.146,-67.243 1.064,-96.541 C 364.565,329.491 353.332,305.75 340.566,284.68 318.359,248.05 291.887,218.683 270.268,192.634 257.18,176.93 245.171,161.938 235.045,148.063 217.822,124.42 205.328,102.802 196.311,86.441 c -2.215,-4.003 -4.118,-7.476 -5.774,-10.353 -0.191,-0.519 -0.383,-1.036 -0.574,-1.552 1.648,2.931 3.543,6.452 5.74,10.527 8.966,16.596 21.356,38.467 38.463,62.365 10.029,14.013 21.932,29.155 34.859,45.019 21.338,26.269 47.394,55.921 69.057,92.792 12.437,21.195 23.275,45.045 29.357,71.679 6.64,29.325 7.319,62.189 -2.322,96.337 C 348.494,511.218 304.761,564.007 245.7,600 Z m 198.416,0 c 26.268,-26.792 46.072,-56.314 58.02,-87.225 17.903,-47.662 14.037,-93.406 -1.634,-131.153 -14.026,-33.555 -36.754,-61.079 -61.147,-83.546 -41.011,-37.716 -86.089,-62.674 -120.961,-84.648 -26.004,-16.34 -48.336,-31.692 -65.977,-46.096 -17.929,-14.642 -31.412,-28.431 -41.574,-38.826 -4.665,-4.775 -8.383,-8.474 -11.407,-10.913 -0.19,-0.493 -0.38,-0.987 -0.568,-1.478 3.004,2.492 6.697,6.261 11.327,11.103 10.103,10.542 23.491,24.488 41.314,39.327 17.501,14.561 39.656,30.121 65.429,46.711 34.485,22.269 78.999,47.649 119.144,85.797 23.856,22.695 45.952,50.422 59.257,84.044 14.897,37.793 17.897,83.376 -0.589,130.65 -12.305,30.631 -32.296,59.825 -58.6,86.253 z m -293.942,0 c 31.049,-12.825 60.285,-30.981 85.736,-53.405 42.337,-37.374 69.889,-83.813 78.59,-132.442 10.722,-62.008 -8.833,-116.918 -30.745,-159.781 -18.32,-35.822 -38.633,-65.831 -53.822,-91.232 -4.575,-7.635 -8.932,-15.108 -13.057,-22.429 -18.449,-32.803 -32.334,-65.396 -40.886,-85.937 -0.194,-0.511 -0.379,-1.038 -0.571,-1.556 8.519,20.903 22.309,53.827 40.606,86.976 4.081,7.382 8.394,14.93 12.916,22.632 15.001,25.594 35.014,55.842 52.925,91.905 21.395,43.095 40.184,98.197 28.809,160.05 -9.201,48.27 -36.788,94.206 -78.803,131.084 -26.25,23.016 -56.465,41.436 -88.475,54.135 z M 0,595.964 c 8.806,1.79 18.104,2.819 27.793,3.057 84.04,1.826 173.907,-48.791 221.24,-127.202 30.649,-51.037 36.951,-105.253 30.099,-153.884 -5.958,-41.94 -20.825,-79.792 -36.333,-115.113 -11.252,-25.627 -22.595,-49.688 -32.018,-71.703 -15.592,-36.41 -27.978,-72.806 -35.884,-97.766 -0.191,-0.521 -0.376,-1.055 -0.568,-1.572 7.891,25.364 20.213,62.143 35.659,98.931 9.322,22.184 20.516,46.444 31.562,72.255 15.201,35.513 29.672,73.541 35.189,115.561 6.335,48.664 -0.493,102.732 -31.354,153.446 C 198.031,549.414 109.443,599.218 26.802,597.632 17.467,597.438 8.504,596.495 0,594.834 Z m 0,-14.313 c 1.378,0.117 2.768,0.213 4.17,0.288 73.582,3.703 147.291,-47.603 192.121,-108.002 40.496,-54.754 52.931,-112.76 51.411,-155.825 -1.561,-39.508 -10.514,-75.514 -20.237,-107.979 -8.711,-29.071 -18.215,-56.03 -26.389,-80.99 -14,-42.775 -25.726,-85.23 -33.771,-116.833 -0.182,-0.507 -0.365,-1.014 -0.545,-1.527 8.053,32.079 19.713,74.944 33.559,118.133 8.06,25.13 17.404,52.264 25.921,81.501 9.478,32.633 18.12,68.79 19.33,108.368 1.133,43.007 -11.691,100.7 -52.115,155.044 C 148.775,533.646 75.86,584.299 3.307,580.871 2.197,580.815 1.095,580.746 0,580.665 Z M 161.507,0 c 7.987,37.002 17.937,81.613 28.569,126.04 8.128,33.941 16.733,68.076 22.704,105.921 4.99,31.609 8.238,70.113 2.388,112.159 -6.586,46.953 -25.512,98.377 -62.19,140.861 C 109.367,535.228 52.729,564.256 2.974,568.122 1.977,568.197 0.985,568.261 0,568.313 v 0.831 c 1.193,-0.051 2.395,-0.119 3.606,-0.203 50.526,-3.668 108.001,-33.1 151.952,-83.991 36.728,-42.765 55.415,-94.414 61.68,-141.456 5.576,-42.076 2.017,-80.53 -3.192,-112.051 C 207.82,193.774 198.66,158.291 190.779,126.087 179.87,81.524 169.744,36.78 161.729,0 Z m -3.393,0 c 7.49,39.964 15.333,84.084 22.859,127.776 6.467,37.595 12.824,75.33 15.289,116.411 1.826,30.417 1.123,68.87 -8.477,110.363 -10.605,45.668 -32.759,94.838 -68.956,133.48 C 81.815,527.42 38.48,551.046 0,558.218 v 0.694 c 39.217,-6.954 83.449,-30.882 121,-70.981 36.298,-38.884 58.304,-88.281 68.67,-134.059 9.377,-41.551 9.825,-79.99 7.813,-110.354 -2.695,-40.936 -9.237,-78.493 -15.848,-115.895 C 173.908,83.907 165.92,39.781 158.381,0 Z m -3.71,0 c 4.899,31.039 9.278,62.785 13.22,93.539 1.697,13.172 3.331,26.497 4.87,40.006 5.929,52.152 10.963,105.683 5.149,162.462 -9.957,96.259 -56.852,176.002 -116.076,220.925 l -0.117,0.091 c -0.039,0.028 -0.077,0.054 -0.113,0.087 C 42.04,532.707 21.008,544.095 0,550.538 v 0.397 c 21.829,-6.45 43.648,-18.147 63.264,-34.066 59.588,-45.214 106.316,-125.415 115.761,-221.738 5.515,-56.677 0.206,-110.02 -5.906,-161.952 -1.573,-13.434 -3.255,-26.688 -4.984,-39.783 C 164.094,62.656 159.63,30.941 154.684,0 Z M 0,592.758 c 1.974,0.41 3.972,0.78 5.992,1.111 90.421,14.59 191.598,-38.753 242.163,-121.731 21.503,-35.453 30.912,-74.097 31.682,-111.115 0.66,-33.448 -5.495,-65.312 -14.274,-94.54 C 250.468,216.399 228.596,173.015 211.936,134.212 195.486,95.866 182.83,58.518 174.792,33.061 c -0.094,-0.252 -0.188,-0.514 -0.281,-0.773 8.03,25.658 20.649,63.193 37.022,101.733 16.53,38.9 38.208,82.375 53.052,132.519 8.631,29.236 14.643,61.089 13.847,94.489 -0.901,36.949 -10.406,75.475 -31.879,110.806 C 196.106,554.447 95.598,607.517 5.769,593.244 3.824,592.93 1.901,592.58 0,592.192 Z M 137.762,0 c 1.76,4.637 4.581,9.26 8.084,13.9 -0.178,-1.054 -0.35,-2.121 -0.522,-3.17 C 142.692,7.141 140.48,3.566 138.86,0 h -0.987 c -2.042,4.604 -3.427,9.054 -4.111,13.241 -1.843,11.357 1.254,21.162 6.606,29.08 5.924,8.744 14.424,16.13 24.169,24.64 23.055,20.114 51.188,51.235 88.543,103.187 -0.816,-0.727 -1.622,-1.453 -2.419,-2.167 C 213.994,115.589 186.276,84.102 163.675,63.796 154.125,55.23 145.824,47.83 140.114,39.128 c -5.161,-7.883 -8.032,-17.639 -5.955,-28.802 0.615,-3.304 1.676,-6.763 3.16,-10.326 -1.484,3.563 -2.545,7.022 -3.16,10.326 -2.077,11.163 0.794,20.919 5.955,28.802 5.71,8.702 14.011,16.102 23.561,24.668 22.601,20.306 50.319,51.793 86.986,104.185 0.797,0.714 1.603,1.44 2.419,2.167 C 215.725,118.196 187.592,87.075 164.537,66.961 154.792,58.451 146.292,51.065 140.368,42.321 135.016,34.403 131.919,24.598 133.762,13.241 134.446,9.054 135.831,4.604 137.873,0 Z M 92.159,600 C 84.583,585.284 78.041,570.015 72.601,554.28 50.83,490.983 46.384,420.499 52.979,350.391 58.625,290.621 71.763,226.377 92.454,160.273 98.614,140.61 105.595,120.575 113.723,100.535 122.22,79.608 132.25,58.052 144.566,36.409 151.179,24.799 158.579,12.947 166.887,0.928 167.101,0.618 167.315,0.31 167.53,0 h -0.078 c -0.351,0.507 -0.7,1.013 -1.047,1.519 -8.354,12.162 -15.782,24.155 -22.424,35.909 -12.373,21.901 -22.44,43.724 -30.981,64.907 -8.183,20.296 -15.209,40.603 -21.423,60.534 -20.83,66.815 -34.205,131.804 -39.984,192.47 -6.784,71.445 -2.284,143.524 19.975,208.5 4.258,12.341 9.174,24.409 14.718,36.161 z M 600,431.949 c -49.46,24.799 -102.708,43.525 -158.351,54.662 -87.837,17.487 -171.628,13.857 -239.436,-15.462 -36.321,-16.223 -64.448,-40.3 -84.08,-69.238 C 100.343,375.701 89.541,345.265 84.85,314.04 76.792,260.217 84.055,197.181 102,135.382 106.531,119.78 112.065,103.409 118.903,86.81 126.056,69.434 134.868,51.318 145.885,33.163 152.429,22.373 159.954,11.295 168.561,0 h 0.021 c -8.916,11.735 -16.682,23.237 -23.407,34.435 -11.049,18.393 -19.881,36.756 -27.059,54.362 -6.861,16.834 -12.427,33.442 -16.974,49.266 -17.972,62.466 -25.346,126.245 -17.122,180.892 4.806,31.828 15.889,62.913 34.141,89.712 20.168,29.572 49.041,54.204 86.36,70.741 69.206,29.711 154.594,33.371 243.997,15.396 C 501.527,484.107 552.427,466.637 600,443.617 Z M 167.814,0 c -13.991,17.929 -25.807,36.625 -35.043,54.793 -9.726,19.157 -17.163,38.548 -22.625,56.04 -9.706,31.108 -15.479,62.825 -17.414,92.01 -3.523,54.291 7.902,106.573 39.159,141.508 41.878,45.747 111.478,62.537 191.117,56.711 43.803,-3.217 87.858,-13.3 130.782,-28.484 42.928,-15.218 82.68,-34.86 119.25,-57.223 -2.78,-1.248 -5.54,-2.487 -8.279,-3.698 -36.045,21.598 -75.129,40.591 -117.283,55.312 -42.159,14.725 -85.395,24.484 -128.369,27.592 -78.17,5.608 -146.472,-10.868 -187.515,-56.019 C 101.135,304.2 89.949,252.796 93.531,199.23 c 1.934,-28.789 7.732,-60.188 17.46,-90.969 5.469,-17.282 12.92,-36.438 22.658,-55.362 C 142.682,35.362 154.169,17.333 167.727,0 Z M 600,600 v -1.542 c -1.68,0.52 -3.362,1.033 -5.047,1.542 z m -361.083,0 C 184.985,577.348 143.182,541.654 115.302,499.664 90.259,461.896 76.358,418.86 70.979,375.697 62.087,303.824 74.196,222.938 97.947,145.525 103.389,127.793 109.725,109.683 117.25,91.563 125.131,72.592 134.567,53.075 146.187,33.53 152.676,22.618 160.038,11.434 168.386,0 h -0.034 c -8.604,11.824 -16.166,23.387 -22.813,34.657 -11.664,19.799 -21.132,39.562 -29.044,58.766 -7.563,18.369 -13.921,36.722 -19.415,54.703 -23.847,78.262 -36.213,160.14 -27.176,233.243 5.494,44.061 19.709,88.085 45.381,126.814 24.423,36.734 59.223,68.819 103.283,91.817 z M 166.116,0 c -3.969,4.963 -7.68,9.897 -11.137,14.792 C 142.5,32.483 132.9,50.361 125.75,67.124 c -12.277,28.783 -19.39,58.489 -22.34,85.309 -5.205,47.776 3.55,93.811 28.699,123.112 29.294,33.585 75.559,45.944 127.151,46.141 57.711,0.16 113.717,-14.541 167.019,-32.487 16.215,-5.494 32.226,-11.39 48.018,-17.506 -2,-0.875 -3.984,-1.74 -5.951,-2.604 -16.145,5.979 -32.505,11.733 -49.057,17.102 -52.336,16.84 -107.089,30.765 -163.377,30.292 -50.34,-0.478 -95.464,-12.731 -124.015,-45.819 -24.506,-28.933 -33.065,-74.268 -27.762,-121.46 2.987,-26.488 10.176,-55.941 22.509,-84.361 7.193,-16.567 16.826,-34.236 29.323,-51.716 3.101,-4.334 6.427,-8.711 9.975,-13.127 z m -7.159,0 c -1.494,1.889 -2.94,3.777 -4.34,5.666 -7.691,10.386 -14.121,20.991 -19.249,31.468 -9.438,19.269 -14.969,39.251 -16.925,57.062 -3.043,27.786 2.859,53.019 15.704,70.259 15.015,20.081 39.508,31.763 69.99,37.305 22.187,3.945 45.699,5.35 70.343,7.266 24.776,1.916 49.961,4.406 76.447,8.943 -1.095,-0.482 -2.185,-0.951 -3.267,-1.419 -26.34,-5.138 -51.336,-8.154 -75.867,-10.478 -24.381,-2.31 -47.608,-3.987 -69.494,-8.133 -29.752,-5.767 -53.664,-17.412 -68.264,-37.271 -12.525,-17.083 -18.21,-42.053 -14.995,-69.503 2.072,-17.61 7.705,-37.338 17.235,-56.344 5.198,-10.366 11.687,-20.837 19.435,-31.098 0.936,-1.241 1.893,-2.482 2.871,-3.723 z m -5.717,0 c -5.063,6.743 -9.34,13.33 -12.775,19.562 -7.199,13.03 -11.931,26.192 -14.393,38.307 -2.366,11.661 -2.746,22.846 -1.479,32.508 4.637,34.918 32.895,53.553 72.56,66.044 34.156,10.892 69.265,20.949 113.009,43.642 0.447,0.23 0.893,0.482 1.346,0.702 -0.834,-0.355 -1.657,-0.735 -2.479,-1.088 -0.857,-0.471 -1.713,-0.937 -2.564,-1.402 -43.002,-23.4 -77.481,-34.076 -110.918,-45.26 -20.285,-6.728 -37.257,-14.08 -49.86,-25.399 -11.08,-9.986 -18.727,-23.687 -20.788,-40.488 -1.153,-9.581 -0.673,-20.609 1.794,-32.114 2.57,-11.98 7.422,-24.966 14.734,-37.845 3.112,-5.49 6.896,-11.261 11.31,-17.169 z m -7.445,0 c -4.308,6.585 -7.744,13.094 -10.298,19.349 -3.904,9.57 -5.928,18.939 -6.299,27.175 -0.651,14.529 3.963,27.017 11.586,36.503 8.567,10.635 20.906,18.536 35.787,26.911 -0.375,-1.1 -0.75,-2.198 -1.135,-3.286 -14.56,-8.488 -26.611,-16.408 -34.913,-26.983 -7.397,-9.437 -11.786,-21.818 -10.934,-36.159 0.494,-8.144 2.639,-17.39 6.659,-26.832 2.31,-5.409 5.296,-11.007 8.951,-16.678 z"
                   style="fill:url(#linearGradient6263);stroke:none"
                   id="path6265"
                   inkscape:connector-curvature="0" /></g></g></g></g></g></g></g></svg>